<?xml version="1.0" encoding="utf-8"?>
<!-- Generator: Adobe Illustrator 16.0.0, SVG Export Plug-In . SVG Version: 6.00 Build 0)  -->
<!DOCTYPE svg PUBLIC "-//W3C//DTD SVG 1.1//EN" "http://www.w3.org/Graphics/SVG/1.1/DTD/svg11.dtd">
<svg version="1.1" xmlns="http://www.w3.org/2000/svg" xmlns:xlink="http://www.w3.org/1999/xlink" x="0px" y="0px" width="1000px"
	 height="1000px" viewBox="0 0 1000 1000" enable-background="new 0 0 1000 1000" xml:space="preserve">
<g id="textm">
	<g>
		<path stroke="#000000" stroke-miterlimit="10" d="M128.342,743.695c-2.628-3.938-3.68-8.271-3.151-12.998
			c1.311-8.137,3.804-15.621,7.484-22.453c3.674-6.825,6.364-11.945,8.075-15.362c1.705-3.409,3.477-7.219,5.317-11.423
			l14.969-34.664l161.895-484.896l174.105,336.395l168.984-336.395l202.073,582.584H656.567l-97.688-300.942L407.62,758.664
			L248.482,475.053l-55.146,172.137c-8.666,19.173-14.839,35.451-18.513,48.844c-3.681,13.393-6.696,23.771-9.06,31.118
			c-5.256,16.544-13.922,24.287-25.998,23.24C134.773,749.862,130.964,747.635,128.342,743.695z"/>
	</g>
</g>
<g id="outring">
	<path fill="none" stroke="#000000" stroke-width="40" stroke-miterlimit="10" d="M975,500c0,262.335-212.665,474.999-475,474.999
		C237.665,974.999,25,762.335,25,500S237.665,25.001,500,25.001C762.335,25.001,975,237.665,975,500z"/>
</g>
</svg>
